<?xml version="1.0" encoding="utf-8"?>
<!-- Generator: Adobe Illustrator 19.0.0, SVG Export Plug-In . SVG Version: 6.00 Build 0)  -->
<svg version="1.1" id="Capa_1" xmlns="http://www.w3.org/2000/svg" xmlns:xlink="http://www.w3.org/1999/xlink" x="0px" y="0px"
	 viewBox="0 0 385.5 112.2" style="enable-background:new 0 0 385.5 112.2;" xml:space="preserve">
<style type="text/css">
	.st0{fill:#FFFFFF;}
</style>
<rect id="XMLID_168_" x="0" width="385.5" height="112.2"/>
<g id="XMLID_118_">
	<path id="XMLID_136_" class="st0" d="M116.9,82.3c-3.1,0-6-0.6-8.8-1.8c-2.7-1.2-5.1-2.8-7.2-4.8c-2-2-3.6-4.4-4.8-7.1
		c-1.2-2.7-1.8-5.7-1.8-8.8c0-3.1,0.6-6,1.8-8.7C97.4,48.4,99,46,101,44c2-2,4.4-3.6,7.2-4.8c2.7-1.2,5.7-1.8,8.8-1.8
		c3.1,0,6,0.6,8.8,1.8c2.7,1.2,5.1,2.8,7.2,4.8c2,2,3.6,4.4,4.8,7.1c1.2,2.7,1.8,5.7,1.8,8.8c0,3.1-0.6,6-1.8,8.8
		c-1.2,2.7-2.8,5.1-4.8,7.1s-4.4,3.6-7.2,4.8C122.9,81.7,120,82.3,116.9,82.3z M117,49c-1.5,0-2.8,0.3-4.1,0.9
		c-1.3,0.6-2.4,1.4-3.3,2.3c-0.9,1-1.6,2.1-2.2,3.4c-0.5,1.3-0.8,2.7-0.8,4.1c0,1.5,0.3,2.8,0.8,4.1c0.5,1.3,1.3,2.5,2.2,3.5
		c0.9,1,2,1.8,3.3,2.4c1.3,0.6,2.6,0.9,4.1,0.9c1.5,0,2.8-0.3,4.1-0.9c1.3-0.6,2.4-1.4,3.3-2.4c0.9-1,1.6-2.2,2.1-3.5
		c0.5-1.3,0.8-2.7,0.8-4.1c0-1.5-0.3-2.8-0.8-4.1c-0.5-1.3-1.2-2.4-2.1-3.4c-0.9-1-2-1.8-3.3-2.3C119.8,49.3,118.4,49,117,49z"/>
	<path id="XMLID_134_" class="st0" d="M155.9,49.7v5.3h19.2v2.8c0,4.6-3.7,8.3-8.3,8.3h-10.9v6.5c0,4.6-3.7,8.3-8.3,8.3h-3.5V38.6
		l33.1,0v2.8c0,4.6-3.7,8.3-8.3,8.3H155.9z"/>
	<path id="XMLID_132_" class="st0" d="M194.1,49.8v5.3h19.2v3c0,4.5-3.7,8.2-8.2,8.2h-11.1v6.6c0,4.5-3.7,8.2-8.2,8.2h-3.7V38.6
		l33.1,0v3c0,4.5-3.7,8.2-8.2,8.2H194.1z"/>
	<path id="XMLID_130_" class="st0" d="M220.1,81V46.9c0-4.6,3.7-8.3,8.3-8.3h4.1v34.1c0,4.6-3.7,8.3-8.3,8.3H220.1z"/>
	<path id="XMLID_129_" class="st0" d="M228.5,24.8c-4.6,0-8.3,3.7-8.3,8.3v8.1c0-3.7,3-6.8,6.8-6.8h5.7v-9.7H228.5z"/>
	<path id="XMLID_128_" class="st0" d="M314,24.8c-4.6,0-8.3,3.7-8.3,8.3v8.1c0-3.7,3-6.8,6.8-6.8h5.7v-9.7H314z"/>
	<path id="XMLID_126_" class="st0" d="M285.4,81h-9.5l-6.3-17.2L263.2,81h-9.5L238,38.6h12.9l7.5,20.3l6.8-18.2
		c0.5-1.3,1.7-2.1,3-2.1h2.8c1.3,0,2.5,0.8,3,2.1l6.7,18.2l7.5-20.3h12.9L285.4,81z"/>
	<path id="XMLID_124_" class="st0" d="M305.7,81V46.9c0-4.6,3.7-8.3,8.3-8.3h4.1v34.1c0,4.6-3.7,8.3-8.3,8.3H305.7z"/>
	<path id="XMLID_122_" class="st0" d="M323.9,81l16.9-30.6h-16.8v-3.5c0-4.6,3.7-8.3,8.3-8.3h28.3l-16.9,30.6h15.9v3.5
		c0,4.6-3.7,8.3-8.3,8.3H323.9z"/>
	<path id="XMLID_119_" class="st0" d="M38.2,32.3c-7.4,0-13.3,6-13.3,13.3v41.7h41.8c7.4,0,13.3-6,13.3-13.3V32.3H38.2z M65.4,66
		H53.5c-7.8,0-14.2,6.3-14.2,14.2v-17c0-9.6,7.8-17.4,17.4-17.4h8.6V66z"/>
</g>
</svg>
