<?xml version="1.0" encoding="utf-8"?>
<!-- Generator: Adobe Illustrator 19.0.0, SVG Export Plug-In . SVG Version: 6.00 Build 0)  -->
<svg version="1.1" id="Capa_1" xmlns="http://www.w3.org/2000/svg" xmlns:xlink="http://www.w3.org/1999/xlink" x="0px" y="0px"
	 viewBox="0 0 104.8 104.8" style="enable-background:new 0 0 104.8 104.8;" xml:space="preserve">
<style type="text/css">
	.st0{fill:#FFFFFF;}
</style>
<g id="XMLID_92_">
	<rect id="XMLID_1155_" x="0" y="0" width="104.8" height="104.8"/>
	<path id="XMLID_985_" class="st0" d="M93.9,37.8c0,13.2-10,22.9-23.4,22.9h-9.4l-8.9,17.4L41.3,15h29.2
		C83.9,15,93.9,24.6,93.9,37.8z M76,37.8c0-4.5-3-7.6-7.6-7.6h-7.4v15.3h7.4C73,45.5,76,42.3,76,37.8z"/>
	<g id="XMLID_291_">
		<polygon id="XMLID_292_" class="st0" points="77.5,89.8 27.2,89.8 39,78.1 42.2,78.1 35.4,85.7 69.4,85.7 62.7,78.1 65.9,78.1 		
			"/>
	</g>
	<g id="XMLID_284_">
		<polygon id="XMLID_290_" class="st0" points="12.6,85.7 20,85.7 32.5,78.1 35.6,78.1 22.2,89.8 7.1,89.8 		"/>
	</g>
	<g id="XMLID_277_">
		<polygon id="XMLID_278_" class="st0" points="97.8,89.7 83.5,89.7 69.1,78.1 72.3,78.1 85.3,85.7 93.4,85.7 		"/>
	</g>
</g>
</svg>
