<?xml version="1.0" encoding="utf-8"?>
<!-- Generator: Adobe Illustrator 19.0.0, SVG Export Plug-In . SVG Version: 6.00 Build 0)  -->
<svg version="1.1" id="Capa_1" xmlns="http://www.w3.org/2000/svg" xmlns:xlink="http://www.w3.org/1999/xlink" x="0px" y="0px"
	 viewBox="0 0 817 303" style="enable-background:new 0 0 817 303;" xml:space="preserve">
<g id="XMLID_750_">
	<g id="XMLID_926_">
		<path id="XMLID_966_" d="M377.9,225.6l3.7-7.9l-7.1-14.5h2.4l5.9,12.3l5.3-12.3h2.4l-10.2,22.4H377.9z"/>
		<path id="XMLID_963_" d="M401.6,218.5c-1.5,0-2.9-0.3-4.2-1c-1.2-0.7-2.2-1.6-3-2.8c-0.7-1.2-1.1-2.6-1.1-4.1
			c0-1.6,0.4-2.9,1.1-4.1c0.7-1.2,1.7-2.1,2.9-2.8c1.2-0.7,2.6-1,4.2-1c1.5,0,2.9,0.3,4.2,1s2.2,1.6,3,2.8c0.7,1.2,1.1,2.6,1.1,4.1
			c0,1.5-0.4,2.9-1.1,4.1c-0.7,1.2-1.7,2.1-3,2.8S403.1,218.5,401.6,218.5z M401.6,216.7c1.2,0,2.2-0.3,3.1-0.8s1.6-1.2,2.1-2.1
			c0.5-0.9,0.8-1.9,0.8-3.1c0-1.2-0.3-2.2-0.8-3.1s-1.2-1.6-2.1-2.1c-0.9-0.5-1.9-0.8-3.1-0.8s-2.2,0.3-3.1,0.8
			c-0.9,0.5-1.6,1.2-2.1,2.1s-0.8,1.9-0.8,3.1c0,1.2,0.3,2.2,0.8,3.1s1.2,1.6,2.1,2.1S400.4,216.7,401.6,216.7z"/>
		<path id="XMLID_961_" d="M420.9,218.5c-2.3,0-3.9-0.5-4.8-1.5c-1-1-1.5-2.7-1.5-5.1v-8.7h2.1v8.3c0,1.9,0.3,3.2,1,4
			c0.6,0.8,1.7,1.2,3.2,1.2c1.5,0,2.6-0.4,3.2-1.2c0.6-0.8,1-2.1,1-4v-8.3h2.1v8.7c0,2.4-0.5,4.1-1.4,5.1S423.1,218.5,420.9,218.5z"
			/>
		<path id="XMLID_959_" d="M433.1,218.1v-14.8h2.1v2.2c0.5-0.9,1.1-1.5,1.8-2c0.7-0.4,1.6-0.7,2.6-0.7c0.4,0,0.9,0,1.3,0.1
			c0.4,0.1,0.8,0.2,1.2,0.4l-0.9,1.8c-0.3-0.1-0.6-0.3-1-0.3c-0.4-0.1-0.7-0.1-1.1-0.1c-0.7,0-1.3,0.2-1.9,0.5s-1.1,0.8-1.5,1.4
			s-0.6,1.1-0.6,1.8v9.8H433.1z"/>
		<path id="XMLID_956_" d="M453.5,225.6v-22.4h2.1v3.1c0.6-1.1,1.4-2,2.5-2.6c1.1-0.6,2.3-0.9,3.6-0.9c1.4,0,2.7,0.3,3.8,1
			c1.1,0.7,2,1.6,2.7,2.8c0.6,1.2,1,2.5,1,4.1c0,1.5-0.3,2.8-1,4c-0.6,1.2-1.5,2.1-2.6,2.8c-1.1,0.7-2.4,1-3.8,1
			c-1.3,0-2.5-0.3-3.6-1c-1.1-0.6-1.9-1.5-2.6-2.6v10.7H453.5z M461.3,216.7c1.1,0,2.1-0.3,3-0.8s1.5-1.2,2-2.1
			c0.5-0.9,0.7-1.9,0.7-3.1c0-1.2-0.2-2.2-0.7-3.1c-0.5-0.9-1.2-1.6-2-2.1s-1.8-0.8-3-0.8c-1.1,0-2.1,0.3-3,0.8s-1.5,1.2-2,2.1
			c-0.5,0.9-0.7,2-0.7,3.1c0,1.2,0.2,2.2,0.7,3.1c0.5,0.9,1.2,1.6,2,2.1C459.2,216.4,460.2,216.7,461.3,216.7z"/>
		<path id="XMLID_953_" d="M480.7,218.5c-1.4,0-2.6-0.3-3.8-1c-1.1-0.7-2-1.6-2.7-2.8c-0.7-1.2-1-2.5-1-4.1c0-1.5,0.3-2.9,1-4
			c0.6-1.2,1.5-2.1,2.6-2.8c1.1-0.7,2.4-1,3.8-1c1.3,0,2.6,0.3,3.7,0.9c1.1,0.6,1.9,1.5,2.5,2.6v-3.1h2.1v14.8h-2.1V215
			c-0.6,1.1-1.5,2-2.6,2.6C483.2,218.2,482,218.5,480.7,218.5z M481.2,216.7c1.1,0,2.1-0.3,3-0.8s1.5-1.2,2-2.1
			c0.5-0.9,0.7-2,0.7-3.1c0-1.2-0.2-2.2-0.7-3.1c-0.5-0.9-1.2-1.6-2-2.1s-1.8-0.8-3-0.8c-1.1,0-2.1,0.3-3,0.8s-1.5,1.2-2,2.1
			c-0.5,0.9-0.7,2-0.7,3.1c0,1.2,0.2,2.2,0.7,3.1c0.5,0.9,1.2,1.6,2,2.1S480.1,216.7,481.2,216.7z"/>
		<path id="XMLID_951_" d="M495.2,218.1v-14.8h2.1v2.2c0.5-0.9,1.1-1.5,1.8-2c0.7-0.4,1.6-0.7,2.6-0.7c0.4,0,0.9,0,1.3,0.1
			c0.4,0.1,0.8,0.2,1.2,0.4l-0.9,1.8c-0.3-0.1-0.6-0.3-1-0.3c-0.4-0.1-0.7-0.1-1.1-0.1c-0.7,0-1.3,0.2-1.9,0.5s-1.1,0.8-1.5,1.4
			s-0.6,1.1-0.6,1.8v9.8H495.2z"/>
		<path id="XMLID_948_" d="M508.2,218.1v-24.9h2.1v16.2l5.9-6.1h2.8l-6.8,7l7.1,7.9h-2.7l-6.3-7v7H508.2z"/>
		<path id="XMLID_945_" d="M525.2,200.3c-0.3,0-0.5-0.1-0.7-0.2c-0.2-0.1-0.4-0.3-0.5-0.5c-0.1-0.2-0.2-0.4-0.2-0.7s0.1-0.5,0.2-0.7
			c0.1-0.2,0.3-0.4,0.5-0.5c0.2-0.1,0.4-0.2,0.7-0.2c0.3,0,0.5,0.1,0.7,0.2s0.4,0.3,0.5,0.5c0.1,0.2,0.2,0.4,0.2,0.7
			c0,0.3-0.1,0.5-0.2,0.7c-0.1,0.2-0.3,0.4-0.5,0.5S525.4,200.3,525.2,200.3z M524.1,218.1v-14.8h2.1v14.8H524.1z"/>
		<path id="XMLID_943_" d="M532.5,218.1v-14.8h2.1v2c0.4-0.7,1-1.3,1.9-1.8s1.9-0.7,3.1-0.7c1.2,0,2.1,0.2,3,0.7
			c0.8,0.5,1.5,1.2,1.9,2.1c0.4,0.9,0.7,2,0.7,3.3v9.3h-2.1v-8.9c0-1.5-0.4-2.7-1.1-3.5c-0.7-0.8-1.7-1.2-3-1.2
			c-0.9,0-1.7,0.2-2.3,0.5c-0.6,0.4-1.1,0.8-1.5,1.4c-0.3,0.6-0.5,1.2-0.5,1.9v9.7H532.5z"/>
		<path id="XMLID_940_" d="M557.7,226.1c-1.9,0-3.5-0.4-4.8-1.1c-1.3-0.7-2.3-1.8-2.9-3.2l1.8-0.8c0.5,1,1.2,1.8,2.3,2.4
			c1.1,0.6,2.3,0.9,3.6,0.9c1.1,0,2.1-0.2,3-0.7c0.9-0.4,1.6-1.1,2.1-2c0.5-0.9,0.8-1.9,0.8-3.1V215c-0.6,1.1-1.5,2-2.5,2.6
			c-1.1,0.6-2.3,1-3.6,1c-1.4,0-2.6-0.3-3.7-1c-1.1-0.7-2-1.6-2.7-2.8c-0.7-1.2-1-2.5-1-4.1c0-1.5,0.3-2.9,1-4.1s1.5-2.1,2.6-2.8
			c1.1-0.7,2.4-1,3.8-1c1.3,0,2.5,0.3,3.6,0.9c1.1,0.6,1.9,1.5,2.5,2.6v-3.1h2.1v15.3c0,1.6-0.3,3-1,4.2s-1.6,2-2.8,2.6
			S559.4,226.1,557.7,226.1z M558,216.7c1.1,0,2.1-0.3,3-0.8s1.5-1.2,2-2.1s0.7-2,0.7-3.1c0-1.2-0.2-2.2-0.7-3.1s-1.2-1.6-2-2.1
			s-1.8-0.8-3-0.8c-1.1,0-2.1,0.3-3,0.8s-1.5,1.2-2,2.1s-0.7,2-0.7,3.1c0,1.2,0.2,2.2,0.7,3.1s1.2,1.6,2,2.1S556.9,216.7,558,216.7z
			"/>
		<path id="XMLID_937_" d="M579.4,225.6v-22.4h2.1v3.1c0.6-1.1,1.4-2,2.5-2.6s2.3-0.9,3.6-0.9c1.4,0,2.7,0.3,3.8,1
			c1.1,0.7,2,1.6,2.7,2.8s1,2.5,1,4.1c0,1.5-0.3,2.8-1,4c-0.6,1.2-1.5,2.1-2.6,2.8c-1.1,0.7-2.4,1-3.8,1c-1.3,0-2.5-0.3-3.6-1
			c-1.1-0.6-1.9-1.5-2.6-2.6v10.7H579.4z M587.2,216.7c1.1,0,2.1-0.3,3-0.8s1.5-1.2,2-2.1s0.7-1.9,0.7-3.1c0-1.2-0.2-2.2-0.7-3.1
			s-1.2-1.6-2-2.1s-1.8-0.8-3-0.8s-2.1,0.3-3,0.8s-1.5,1.2-2,2.1c-0.5,0.9-0.7,2-0.7,3.1c0,1.2,0.2,2.2,0.7,3.1s1.2,1.6,2,2.1
			S586.1,216.7,587.2,216.7z"/>
		<path id="XMLID_935_" d="M600.3,218.1v-24.9h2.1v24.9H600.3z"/>
		<path id="XMLID_932_" d="M615,218.5c-1.4,0-2.6-0.3-3.8-1c-1.1-0.7-2-1.6-2.7-2.8c-0.7-1.2-1-2.5-1-4.1c0-1.5,0.3-2.9,1-4
			c0.6-1.2,1.5-2.1,2.6-2.8c1.1-0.7,2.4-1,3.8-1c1.3,0,2.6,0.3,3.7,0.9c1.1,0.6,1.9,1.5,2.5,2.6v-3.1h2.1v14.8h-2.1V215
			c-0.6,1.1-1.5,2-2.6,2.6C617.5,218.2,616.3,218.5,615,218.5z M615.5,216.7c1.1,0,2.1-0.3,3-0.8s1.5-1.2,2-2.1s0.7-2,0.7-3.1
			c0-1.2-0.2-2.2-0.7-3.1c-0.5-0.9-1.2-1.6-2-2.1s-1.8-0.8-3-0.8c-1.1,0-2.1,0.3-3,0.8s-1.5,1.2-2,2.1c-0.5,0.9-0.7,2-0.7,3.1
			c0,1.2,0.2,2.2,0.7,3.1s1.2,1.6,2,2.1S614.4,216.7,615.5,216.7z"/>
		<path id="XMLID_930_" d="M636.4,218.5c-1.1,0-2.2-0.2-3.1-0.6c-1-0.4-1.8-0.9-2.6-1.7c-0.7-0.7-1.3-1.6-1.7-2.5
			c-0.4-1-0.6-2-0.6-3.1c0-1.1,0.2-2.2,0.6-3.1s1-1.8,1.7-2.5c0.7-0.7,1.6-1.3,2.6-1.7s2-0.6,3.2-0.6c1,0,1.9,0.1,2.8,0.4
			c0.9,0.3,1.6,0.7,2.3,1.2l-0.9,1.4c-1.1-0.8-2.4-1.3-3.9-1.3c-1.2,0-2.3,0.3-3.2,0.8c-0.9,0.5-1.6,1.3-2.2,2.2
			c-0.5,0.9-0.8,2-0.8,3.1c0,1.2,0.3,2.2,0.8,3.1c0.5,0.9,1.2,1.7,2.2,2.2c0.9,0.5,2,0.8,3.2,0.8c0.8,0,1.5-0.1,2.1-0.3
			c0.7-0.2,1.3-0.5,1.8-0.9l0.9,1.4c-0.6,0.5-1.4,0.9-2.3,1.2C638.3,218.4,637.4,218.5,636.4,218.5z"/>
		<path id="XMLID_927_" d="M653,218.5c-1.6,0-2.9-0.3-4.2-1c-1.2-0.7-2.2-1.6-2.9-2.8c-0.7-1.2-1-2.5-1-4c0-1.1,0.2-2.1,0.6-3.1
			s1-1.8,1.7-2.5c0.7-0.7,1.5-1.3,2.5-1.7c0.9-0.4,2-0.6,3-0.6c1.5,0,2.8,0.3,3.9,1s2.1,1.5,2.7,2.7s1,2.4,1.1,3.9
			c0,0.1,0,0.2,0,0.3s0,0.2,0,0.3H647c0,1.2,0.3,2.2,0.8,3.1c0.5,0.9,1.2,1.6,2.2,2.1c0.9,0.5,2,0.8,3.1,0.8c1.1,0,2.1-0.2,3-0.7
			c0.9-0.5,1.6-1.1,2.2-2l1.6,0.8c-0.7,1.2-1.7,2-2.9,2.7C655.8,218.2,654.5,218.5,653,218.5z M647.1,209.3h11.2
			c-0.1-0.9-0.5-1.7-1-2.5c-0.5-0.7-1.2-1.3-2-1.7c-0.8-0.4-1.7-0.6-2.6-0.6c-1,0-1.9,0.2-2.7,0.6c-0.8,0.4-1.5,1-2,1.7
			C647.6,207.5,647.3,208.3,647.1,209.3z"/>
	</g>
	<g id="XMLID_751_">
		<path id="XMLID_154_" d="M354.3,115.4c0,19.6-14.8,33.9-34.7,33.9h-14l-13.2,25.8l-16.4-93.5h43.6
			C339.5,81.6,354.3,95.8,354.3,115.4z M327.8,115.5c0-6.6-4.5-11.3-11.3-11.3h-10.9v22.7h10.9C323.4,126.8,327.8,122.1,327.8,115.5
			z M441.2,102.9v72.2H422l-2.1-5.1c-5.9,4.8-13.4,7.5-21.8,7.5c-22.1,0-37.8-16.1-37.8-38.5c0-22.3,15.8-38.3,37.8-38.3
			c8.5,0,16.1,2.8,22,7.8l2.5-5.6L441.2,102.9z M417.6,139c0-9.4-6.8-16.4-16.2-16.4c-9.4,0-16.2,7-16.2,16.4
			c0,9.4,6.8,16.5,16.2,16.5S417.6,148.5,417.6,139z M503.9,102.6v22.7h-9.6c-8.8,0-12.5,3.9-12.5,13.1v36.7h-24.9V103h16.6l3.9,8
			c5.1-5.9,11.3-8.4,19.9-8.4H503.9z M557.3,175.1l-18.1-30.5v30.5h-24.9V76.9h24.9v54.3l17.2-28.3h27.9l-22.5,34.4l24.8,37.8H557.3
			z M666.5,102.9v72.2h-19.2l-2.1-5.1c-5.9,4.8-13.4,7.5-21.8,7.5c-22.1,0-37.8-16.1-37.8-38.5c0-22.3,15.8-38.3,37.8-38.3
			c8.5,0,16.1,2.8,22,7.8l2.5-5.6L666.5,102.9z M642.8,139c0-9.4-6.8-16.4-16.2-16.4c-9.4,0-16.2,7-16.2,16.4
			c0,9.4,6.8,16.5,16.2,16.5C636,155.5,642.8,148.5,642.8,139z M677.9,139.1c0-22.4,16.9-38.4,40.5-38.4c23.4,0,40.5,16.1,40.5,38.4
			c0,22.3-17,38.4-40.5,38.4C694.9,177.5,677.9,161.4,677.9,139.1z M718.4,155.2c9.1,0,15.6-6.6,15.6-16.1c0-9.5-6.5-16.1-15.6-16.1
			c-9.1,0-15.6,6.6-15.6,16.1C702.8,148.6,709.3,155.2,718.4,155.2L718.4,155.2z"/>
	</g>
</g>
<g id="XMLID_742_">
	<path id="XMLID_746_" d="M216.3,210.3H103.4l26.3-23.8l7.2,0L121.7,202h76.2l-15-15.6l7.2,0.1L216.3,210.3z M58.1,210.3h34
		l30.1-23.8l-7.1-0.1L87.2,202H70.7L58.1,210.3z M251.8,201.9h-18.2l-29.1-15.5l-7.2,0l32.2,23.6h32.1L251.8,201.9z"/>
	<path id="XMLID_743_" d="M159.8,92.7c-20.1,0-34.6,15.1-34.6,35.4c0,20.3,34.6,55.8,34.6,55.8s34.6-38.1,34.6-55.8
		S179.9,92.7,159.8,92.7z M159.9,140.9c-7.9,0-14.3-6.4-14.3-14.3c0-7.9,6.4-14.3,14.3-14.3c7.9,0,14.3,6.4,14.3,14.3
		C174.2,134.4,167.8,140.9,159.9,140.9z"/>
</g>
</svg>
