<?xml version="1.0" encoding="utf-8"?>
<!-- Generator: Adobe Illustrator 19.0.0, SVG Export Plug-In . SVG Version: 6.00 Build 0)  -->
<svg version="1.1" id="Capa_1" xmlns="http://www.w3.org/2000/svg" xmlns:xlink="http://www.w3.org/1999/xlink" x="0px" y="0px"
	 viewBox="0 0 595.3 595.3" style="enable-background:new 0 0 595.3 595.3;" xml:space="preserve">
<style type="text/css">
	.st0{fill:#FFFFFF;}
</style>
<g id="XMLID_12_">
	<rect id="XMLID_376_" x="0" y="0" width="595.3" height="595.3"/>
	<g id="XMLID_604_">
		<g id="XMLID_183_">
			<path id="XMLID_271_" class="st0" d="M158.1,435.8l3.7-7.9l-7.1-14.5h2.4l5.9,12.3l5.3-12.3h2.4l-10.2,22.4H158.1z"/>
			<path id="XMLID_268_" class="st0" d="M181.7,428.7c-1.5,0-2.9-0.3-4.2-1c-1.2-0.7-2.2-1.6-3-2.8c-0.7-1.2-1.1-2.6-1.1-4.1
				c0-1.6,0.4-2.9,1.1-4.1c0.7-1.2,1.7-2.1,2.9-2.8c1.2-0.7,2.6-1,4.2-1c1.5,0,2.9,0.3,4.2,1s2.2,1.6,3,2.8c0.7,1.2,1.1,2.6,1.1,4.1
				c0,1.5-0.4,2.9-1.1,4.1c-0.7,1.2-1.7,2.1-3,2.8S183.3,428.7,181.7,428.7z M181.7,426.9c1.2,0,2.2-0.3,3.1-0.8s1.6-1.2,2.1-2.1
				c0.5-0.9,0.8-1.9,0.8-3.1c0-1.2-0.3-2.2-0.8-3.1s-1.2-1.6-2.1-2.1c-0.9-0.5-1.9-0.8-3.1-0.8s-2.2,0.3-3.1,0.8
				c-0.9,0.5-1.6,1.2-2.1,2.1s-0.8,1.9-0.8,3.1c0,1.2,0.3,2.2,0.8,3.1s1.2,1.6,2.1,2.1S180.6,426.9,181.7,426.9z"/>
			<path id="XMLID_266_" class="st0" d="M201.1,428.7c-2.3,0-3.9-0.5-4.8-1.5c-1-1-1.5-2.7-1.5-5.1v-8.7h2.1v8.3c0,1.9,0.3,3.2,1,4
				c0.6,0.8,1.7,1.2,3.2,1.2c1.5,0,2.6-0.4,3.2-1.2c0.6-0.8,1-2.1,1-4v-8.3h2.1v8.7c0,2.4-0.5,4.1-1.4,5.1S203.3,428.7,201.1,428.7z
				"/>
			<path id="XMLID_264_" class="st0" d="M213.3,428.3v-14.8h2.1v2.2c0.5-0.9,1.1-1.5,1.8-2c0.7-0.4,1.6-0.7,2.6-0.7
				c0.4,0,0.9,0,1.3,0.1c0.4,0.1,0.8,0.2,1.2,0.4l-0.9,1.8c-0.3-0.1-0.6-0.3-1-0.3c-0.4-0.1-0.7-0.1-1.1-0.1c-0.7,0-1.3,0.2-1.9,0.5
				s-1.1,0.8-1.5,1.4s-0.6,1.1-0.6,1.8v9.8H213.3z"/>
			<path id="XMLID_261_" class="st0" d="M233.7,435.8v-22.4h2.1v3.1c0.6-1.1,1.4-2,2.5-2.6c1.1-0.6,2.3-0.9,3.6-0.9
				c1.4,0,2.7,0.3,3.8,1c1.1,0.7,2,1.6,2.7,2.8c0.6,1.2,1,2.5,1,4.1c0,1.5-0.3,2.8-1,4c-0.6,1.2-1.5,2.1-2.6,2.8
				c-1.1,0.7-2.4,1-3.8,1c-1.3,0-2.5-0.3-3.6-1c-1.1-0.6-1.9-1.5-2.6-2.6v10.7H233.7z M241.5,426.9c1.1,0,2.1-0.3,3-0.8
				s1.5-1.2,2-2.1c0.5-0.9,0.7-1.9,0.7-3.1c0-1.2-0.2-2.2-0.7-3.1c-0.5-0.9-1.2-1.6-2-2.1s-1.8-0.8-3-0.8c-1.1,0-2.1,0.3-3,0.8
				s-1.5,1.2-2,2.1c-0.5,0.9-0.7,2-0.7,3.1c0,1.2,0.2,2.2,0.7,3.1c0.5,0.9,1.2,1.6,2,2.1C239.4,426.6,240.4,426.9,241.5,426.9z"/>
			<path id="XMLID_258_" class="st0" d="M260.9,428.7c-1.4,0-2.6-0.3-3.8-1c-1.1-0.7-2-1.6-2.7-2.8c-0.7-1.2-1-2.5-1-4.1
				c0-1.5,0.3-2.9,1-4c0.6-1.2,1.5-2.1,2.6-2.8c1.1-0.7,2.4-1,3.8-1c1.3,0,2.6,0.3,3.7,0.9c1.1,0.6,1.9,1.5,2.5,2.6v-3.1h2.1v14.8
				H267v-3.1c-0.6,1.1-1.5,2-2.6,2.6C263.4,428.4,262.2,428.7,260.9,428.7z M261.4,426.9c1.1,0,2.1-0.3,3-0.8s1.5-1.2,2-2.1
				c0.5-0.9,0.7-2,0.7-3.1c0-1.2-0.2-2.2-0.7-3.1c-0.5-0.9-1.2-1.6-2-2.1s-1.8-0.8-3-0.8c-1.1,0-2.1,0.3-3,0.8s-1.5,1.2-2,2.1
				c-0.5,0.9-0.7,2-0.7,3.1c0,1.2,0.2,2.2,0.7,3.1c0.5,0.9,1.2,1.6,2,2.1S260.3,426.9,261.4,426.9z"/>
			<path id="XMLID_256_" class="st0" d="M275.4,428.3v-14.8h2.1v2.2c0.5-0.9,1.1-1.5,1.8-2c0.7-0.4,1.6-0.7,2.6-0.7
				c0.4,0,0.9,0,1.3,0.1c0.4,0.1,0.8,0.2,1.2,0.4l-0.9,1.8c-0.3-0.1-0.6-0.3-1-0.3c-0.4-0.1-0.7-0.1-1.1-0.1c-0.7,0-1.3,0.2-1.9,0.5
				s-1.1,0.8-1.5,1.4s-0.6,1.1-0.6,1.8v9.8H275.4z"/>
			<path id="XMLID_254_" class="st0" d="M288.3,428.3v-24.9h2.1v16.2l5.9-6.1h2.8l-6.8,7l7.1,7.9h-2.7l-6.3-7v7H288.3z"/>
			<path id="XMLID_238_" class="st0" d="M305.4,410.5c-0.3,0-0.5-0.1-0.7-0.2c-0.2-0.1-0.4-0.3-0.5-0.5c-0.1-0.2-0.2-0.4-0.2-0.7
				s0.1-0.5,0.2-0.7c0.1-0.2,0.3-0.4,0.5-0.5c0.2-0.1,0.4-0.2,0.7-0.2c0.3,0,0.5,0.1,0.7,0.2s0.4,0.3,0.5,0.5
				c0.1,0.2,0.2,0.4,0.2,0.7c0,0.3-0.1,0.5-0.2,0.7c-0.1,0.2-0.3,0.4-0.5,0.5S305.6,410.5,305.4,410.5z M304.3,428.3v-14.8h2.1v14.8
				H304.3z"/>
			<path id="XMLID_236_" class="st0" d="M312.7,428.3v-14.8h2.1v2c0.4-0.7,1-1.3,1.9-1.8s1.9-0.7,3.1-0.7c1.2,0,2.1,0.2,3,0.7
				c0.8,0.5,1.5,1.2,1.9,2.1c0.4,0.9,0.7,2,0.7,3.3v9.3h-2.1v-8.9c0-1.5-0.4-2.7-1.1-3.5c-0.7-0.8-1.7-1.2-3-1.2
				c-0.9,0-1.7,0.2-2.3,0.5c-0.6,0.4-1.1,0.8-1.5,1.4c-0.3,0.6-0.5,1.2-0.5,1.9v9.7H312.7z"/>
			<path id="XMLID_229_" class="st0" d="M337.9,436.3c-1.9,0-3.5-0.4-4.8-1.1c-1.3-0.7-2.3-1.8-2.9-3.2l1.8-0.8
				c0.5,1,1.2,1.8,2.3,2.4c1.1,0.6,2.3,0.9,3.6,0.9c1.1,0,2.1-0.2,3-0.7c0.9-0.4,1.6-1.1,2.1-2c0.5-0.9,0.8-1.9,0.8-3.1v-3.6
				c-0.6,1.1-1.5,2-2.5,2.6c-1.1,0.6-2.3,1-3.6,1c-1.4,0-2.6-0.3-3.7-1c-1.1-0.7-2-1.6-2.7-2.8c-0.7-1.2-1-2.5-1-4.1
				c0-1.5,0.3-2.9,1-4.1s1.5-2.1,2.6-2.8c1.1-0.7,2.4-1,3.8-1c1.3,0,2.5,0.3,3.6,0.9c1.1,0.6,1.9,1.5,2.5,2.6v-3.1h2.1v15.3
				c0,1.6-0.3,3-1,4.2s-1.6,2-2.8,2.6S339.5,436.3,337.9,436.3z M338.2,426.9c1.1,0,2.1-0.3,3-0.8s1.5-1.2,2-2.1s0.7-2,0.7-3.1
				c0-1.2-0.2-2.2-0.7-3.1s-1.2-1.6-2-2.1s-1.8-0.8-3-0.8c-1.1,0-2.1,0.3-3,0.8s-1.5,1.2-2,2.1s-0.7,2-0.7,3.1
				c0,1.2,0.2,2.2,0.7,3.1s1.2,1.6,2,2.1S337.1,426.9,338.2,426.9z"/>
			<path id="XMLID_226_" class="st0" d="M359.6,435.8v-22.4h2.1v3.1c0.6-1.1,1.4-2,2.5-2.6s2.3-0.9,3.6-0.9c1.4,0,2.7,0.3,3.8,1
				c1.1,0.7,2,1.6,2.7,2.8s1,2.5,1,4.1c0,1.5-0.3,2.8-1,4c-0.6,1.2-1.5,2.1-2.6,2.8c-1.1,0.7-2.4,1-3.8,1c-1.3,0-2.5-0.3-3.6-1
				c-1.1-0.6-1.9-1.5-2.6-2.6v10.7H359.6z M367.4,426.9c1.1,0,2.1-0.3,3-0.8s1.5-1.2,2-2.1s0.7-1.9,0.7-3.1c0-1.2-0.2-2.2-0.7-3.1
				s-1.2-1.6-2-2.1s-1.8-0.8-3-0.8s-2.1,0.3-3,0.8s-1.5,1.2-2,2.1c-0.5,0.9-0.7,2-0.7,3.1c0,1.2,0.2,2.2,0.7,3.1s1.2,1.6,2,2.1
				S366.3,426.9,367.4,426.9z"/>
			<path id="XMLID_224_" class="st0" d="M380.5,428.3v-24.9h2.1v24.9H380.5z"/>
			<path id="XMLID_219_" class="st0" d="M395.2,428.7c-1.4,0-2.6-0.3-3.8-1c-1.1-0.7-2-1.6-2.7-2.8c-0.7-1.2-1-2.5-1-4.1
				c0-1.5,0.3-2.9,1-4c0.6-1.2,1.5-2.1,2.6-2.8c1.1-0.7,2.4-1,3.8-1c1.3,0,2.6,0.3,3.7,0.9c1.1,0.6,1.9,1.5,2.5,2.6v-3.1h2.1v14.8
				h-2.1v-3.1c-0.6,1.1-1.5,2-2.6,2.6C397.7,428.4,396.5,428.7,395.2,428.7z M395.7,426.9c1.1,0,2.1-0.3,3-0.8s1.5-1.2,2-2.1
				s0.7-2,0.7-3.1c0-1.2-0.2-2.2-0.7-3.1c-0.5-0.9-1.2-1.6-2-2.1s-1.8-0.8-3-0.8c-1.1,0-2.1,0.3-3,0.8s-1.5,1.2-2,2.1
				c-0.5,0.9-0.7,2-0.7,3.1c0,1.2,0.2,2.2,0.7,3.1s1.2,1.6,2,2.1S394.6,426.9,395.7,426.9z"/>
			<path id="XMLID_197_" class="st0" d="M416.6,428.7c-1.1,0-2.2-0.2-3.1-0.6c-1-0.4-1.8-0.9-2.6-1.7c-0.7-0.7-1.3-1.6-1.7-2.5
				c-0.4-1-0.6-2-0.6-3.1c0-1.1,0.2-2.2,0.6-3.1s1-1.8,1.7-2.5c0.7-0.7,1.6-1.3,2.6-1.7s2-0.6,3.2-0.6c1,0,1.9,0.1,2.8,0.4
				c0.9,0.3,1.6,0.7,2.3,1.2l-0.9,1.4c-1.1-0.8-2.4-1.3-3.9-1.3c-1.2,0-2.3,0.3-3.2,0.8c-0.9,0.5-1.6,1.3-2.2,2.2
				c-0.5,0.9-0.8,2-0.8,3.1c0,1.2,0.3,2.2,0.8,3.1c0.5,0.9,1.2,1.7,2.2,2.2c0.9,0.5,2,0.8,3.2,0.8c0.8,0,1.5-0.1,2.1-0.3
				c0.7-0.2,1.3-0.5,1.8-0.9l0.9,1.4c-0.6,0.5-1.4,0.9-2.3,1.2C418.5,428.6,417.5,428.7,416.6,428.7z"/>
			<path id="XMLID_184_" class="st0" d="M433.2,428.7c-1.6,0-2.9-0.3-4.2-1c-1.2-0.7-2.2-1.6-2.9-2.8c-0.7-1.2-1-2.5-1-4
				c0-1.1,0.2-2.1,0.6-3.1s1-1.8,1.7-2.5c0.7-0.7,1.5-1.3,2.5-1.7c0.9-0.4,2-0.6,3-0.6c1.5,0,2.8,0.3,3.9,1s2.1,1.5,2.7,2.7
				s1,2.4,1.1,3.9c0,0.1,0,0.2,0,0.3s0,0.2,0,0.3h-13.4c0,1.2,0.3,2.2,0.8,3.1c0.5,0.9,1.2,1.6,2.2,2.1c0.9,0.5,2,0.8,3.1,0.8
				c1.1,0,2.1-0.2,3-0.7c0.9-0.5,1.6-1.1,2.2-2l1.6,0.8c-0.7,1.2-1.7,2-2.9,2.7C436,428.4,434.7,428.7,433.2,428.7z M427.3,419.5
				h11.2c-0.1-0.9-0.5-1.7-1-2.5c-0.5-0.7-1.2-1.3-2-1.7c-0.8-0.4-1.7-0.6-2.6-0.6c-1,0-1.9,0.2-2.7,0.6c-0.8,0.4-1.5,1-2,1.7
				C427.8,417.7,427.4,418.5,427.3,419.5z"/>
		</g>
		<g id="XMLID_148_">
			<path id="XMLID_116_" class="st0" d="M134.5,325.6c0,19.6-14.8,33.9-34.7,33.9h-14l-13.2,25.8l-16.4-93.5h43.6
				C119.7,291.8,134.5,306,134.5,325.6z M108,325.7c0-6.6-4.5-11.3-11.3-11.3H85.8V337h10.9C103.5,337,108,332.3,108,325.7z
				 M221.4,313.1v72.2h-19.2l-2.1-5.1c-5.9,4.8-13.4,7.5-21.8,7.5c-22.1,0-37.8-16.1-37.8-38.5c0-22.3,15.8-38.3,37.8-38.3
				c8.5,0,16.1,2.8,22,7.8l2.5-5.6L221.4,313.1z M197.7,349.2c0-9.4-6.8-16.4-16.2-16.4c-9.4,0-16.2,7-16.2,16.4
				c0,9.4,6.8,16.5,16.2,16.5S197.7,358.7,197.7,349.2z M284,312.8v22.7h-9.6c-8.8,0-12.5,3.9-12.5,13.1v36.7H237v-72.2h16.6l3.9,8
				c5.1-5.9,11.3-8.4,19.9-8.4H284z M337.4,385.3l-18.1-30.5v30.5h-24.9v-98.2h24.9v54.3l17.2-28.3h27.9L342,347.6l24.8,37.8H337.4z
				 M446.7,313.1v72.2h-19.2l-2.1-5.1c-5.9,4.8-13.4,7.5-21.8,7.5c-22.1,0-37.8-16.1-37.8-38.5c0-22.3,15.8-38.3,37.8-38.3
				c8.5,0,16.1,2.8,22,7.8l2.5-5.6L446.7,313.1z M423,349.2c0-9.4-6.8-16.4-16.2-16.4c-9.4,0-16.2,7-16.2,16.4
				c0,9.4,6.8,16.5,16.2,16.5C416.2,365.7,423,358.7,423,349.2z M458.1,349.3c0-22.4,16.9-38.4,40.5-38.4
				c23.4,0,40.5,16.1,40.5,38.4c0,22.3-17,38.4-40.5,38.4C475.1,387.7,458.1,371.6,458.1,349.3z M498.6,365.4
				c9.1,0,15.6-6.6,15.6-16.1c0-9.5-6.5-16.1-15.6-16.1c-9.1,0-15.6,6.6-15.6,16.1C483,358.8,489.5,365.4,498.6,365.4L498.6,365.4z"
				/>
		</g>
		<path id="XMLID_144_" class="st0" d="M354,276.6H241.1l26.3-23.8l7.2,0l-15.2,15.6h76.2l-15-15.6l7.2,0.1L354,276.6z M195.9,276.6
			h34l30.1-23.8l-7.1-0.1L225,268.3h-16.6L195.9,276.6z M389.6,268.2h-18.2l-29.1-15.5l-7.2,0l32.2,23.6h32.1L389.6,268.2z"/>
		<path id="XMLID_141_" class="st0" d="M297.6,159c-20.1,0-34.6,15.1-34.6,35.4c0,20.3,34.6,55.8,34.6,55.8s34.6-38.1,34.6-55.8
			S317.6,159,297.6,159z M297.6,207.2c-7.9,0-14.3-6.4-14.3-14.3c0-7.9,6.4-14.3,14.3-14.3c7.9,0,14.3,6.4,14.3,14.3
			C312,200.7,305.6,207.2,297.6,207.2z"/>
	</g>
</g>
</svg>
